<?xml version="1.0" encoding="utf-8"?>
<!-- Generator: Adobe Illustrator 23.0.3, SVG Export Plug-In . SVG Version: 6.00 Build 0)  -->
<svg width="40" height="37" version="1.1" id="Layer_1" xmlns="http://www.w3.org/2000/svg" xmlns:xlink="http://www.w3.org/1999/xlink" x="0px" y="0px"
	 viewBox="0 0 150 140.6" style="enable-background:new 0 0 150 140.6;" xml:space="preserve">
<style type="text/css">
	.st0{fill:none;stroke:#FFFFFF;stroke-width:7;stroke-linecap:round;stroke-linejoin:round;stroke-dasharray:29.2716,29.2716;}
	.st1{fill:#FFFFFF;}
</style>
<g>
	<g>
		<g>
			
				<ellipse transform="matrix(0.7071 -0.7071 0.7071 0.7071 -27.7355 73.6277)" class="st0" cx="75" cy="70.3" rx="46.6" ry="46.6"/>
		</g>
	</g>
	<g>
		<path class="st1" d="M141.7,80.2c-1.6-0.3-3.1,0.7-3.4,2.3c-5.8,30.2-32.4,52.2-63.3,52.2c-30.2,0-56.3-21-62.9-50.3l0.8,0.8
			c0.6,0.6,1.3,0.9,2.1,0.9c0.7,0,1.5-0.3,2.1-0.9c1.1-1.1,1.1-3,0-4.1l-6-6c-0.5-0.5-1.3-0.9-2.1-0.9c-0.8,0-1.5,0.3-2.1,0.9l-6,6
			c-1.1,1.1-1.1,3,0,4.1c1.1,1.1,3,1.1,4.1,0l1.1-1.1c6.5,32.7,35.4,56.4,68.9,56.4c33.6,0,62.7-23.9,69-56.9
			C144.3,82.1,143.3,80.5,141.7,80.2L141.7,80.2z M141.7,80.2"/>
		<path class="st1" d="M149.2,55.4c-1.1-1.1-3-1.1-4.1,0l-1.1,1.1C137.4,23.7,108.5,0,75,0C41.4,0,12.3,23.9,6,56.9
			c-0.3,1.6,0.7,3.1,2.3,3.4c1.6,0.3,3.1-0.7,3.4-2.3C17.6,27.8,44.2,5.9,75,5.9c30.2,0,56.3,21,62.9,50.3l-0.8-0.8
			c-1.1-1.1-3-1.1-4.1,0c-1.1,1.1-1.1,3,0,4.1l6,6c0.5,0.5,1.3,0.9,2.1,0.9c0.8,0,1.5-0.3,2.1-0.9l6-6
			C150.3,58.4,150.3,56.5,149.2,55.4L149.2,55.4z M149.2,55.4"/>
	</g>
	<g>
		<path class="st1" d="M48.4,77.6l11.1-8.5c1.4-1.1,2.4-2,3-2.8c0.6-0.8,0.9-1.6,0.9-2.5c0-0.9-0.3-1.7-0.9-2.2
			c-0.6-0.5-1.4-0.8-2.4-0.8c-1,0-1.9,0.3-2.8,0.9c-0.9,0.6-1.9,1.6-3.1,2.9L48.6,60c0.8-1,1.6-1.9,2.4-2.7c0.8-0.8,1.7-1.5,2.7-2
			c0.9-0.5,2-0.9,3.1-1.2c1.1-0.3,2.4-0.4,3.9-0.4c1.6,0,3.1,0.2,4.4,0.7c1.3,0.5,2.5,1.1,3.5,1.9c1,0.8,1.7,1.8,2.3,3
			c0.5,1.2,0.8,2.5,0.8,3.8v0.1c0,1.2-0.1,2.3-0.4,3.2c-0.3,0.9-0.7,1.8-1.3,2.6c-0.6,0.8-1.3,1.6-2.2,2.3c-0.8,0.7-1.8,1.5-2.9,2.3
			l-5.1,3.6H72v6.7H48.4V77.6z"/>
		<path class="st1" d="M89.8,78.1H75.4l-1.4-5.8l15.4-18.3h8.3v18h3.8v6.2h-3.8v5.8h-8V78.1z M89.8,72v-8.5L82.7,72H89.8z"/>
	</g>
</g>
</svg>
